<svg width="71" height="71" viewBox="0 0 71 71" fill="none" xmlns="http://www.w3.org/2000/svg">
<g clip-path="url(#clip0_11_2070)">
<path d="M67.4399 35.9348L62.2332 34.6944C60.9287 34.3834 59.505 34.454 58.2732 34.8909C57.0413 35.3278 56.1014 36.0954 55.6587 37.026L53.96 36.7225V25.8255C53.9605 25.3792 53.8481 24.9366 53.6281 24.519L41.3445 1.10336C41.1517 0.730062 40.7804 0.417525 40.2963 0.221005C39.8122 0.0244845 39.2465 -0.0433605 38.6992 0.029464C37.4566 0.199773 36.33 0.66335 35.5 1.34589C34.6694 0.663041 33.5422 0.199237 32.299 0.0287873C31.7518 -0.0429916 31.1868 0.0254735 30.7032 0.222136C30.2197 0.418799 29.8487 0.731059 29.6555 1.10397L17.3719 24.5183C17.152 24.9362 17.0396 25.379 17.04 25.8255V36.7225L15.3413 37.026C14.8986 36.0954 13.9587 35.3278 12.7268 34.8909C11.495 34.454 10.0713 34.3834 8.7668 34.6944L3.56013 35.9348C2.52297 36.1813 1.62081 36.6551 0.981733 37.2889C0.342659 37.9227 -0.000841761 38.6843 1.54906e-06 39.4656V53.0786C0.00165504 54.0653 0.550744 55.0113 1.52683 55.709C2.50291 56.4067 3.82628 56.7992 5.20667 56.8004H10.4133C11.7937 56.7992 13.1171 56.4067 14.0932 55.709C15.0693 55.0113 15.6183 54.0653 15.62 53.0786V50.3226L23.2886 47.582L23.4577 47.5365C28.2556 46.2508 33.1583 44.9253 35.5 42.1189C37.8417 44.9253 42.7444 46.2506 47.5423 47.5365L55.38 50.3312V53.0791C55.3817 54.0658 55.9307 55.0118 56.9068 55.7095C57.8829 56.4072 59.2063 56.7997 60.5867 56.8009H65.7933C67.1737 56.7997 68.4971 56.4072 69.4732 55.7095C70.4493 55.0118 70.9983 54.0658 71 53.0791V39.4656C71.0009 38.6843 70.6574 37.9227 70.0183 37.2888C69.3792 36.655 68.4771 36.1812 67.4399 35.9348ZM12.78 53.0786C12.7794 53.5271 12.5298 53.9571 12.0861 54.2743C11.6424 54.5915 11.0408 54.7698 10.4133 54.7703H5.20667C4.57919 54.7698 3.9776 54.5915 3.5339 54.2743C3.09021 53.9571 2.84065 53.5271 2.84 53.0786V39.4656C2.83961 39.1104 2.99569 38.7643 3.2861 38.4761C3.5765 38.188 3.98648 37.9726 4.45785 37.8604L9.66452 36.62C9.90827 36.5616 10.1636 36.5317 10.4207 36.5315C11.0472 36.5339 11.6469 36.7133 12.0889 37.0306C12.5309 37.348 12.7794 37.7774 12.78 38.2252V53.0786ZM34.08 38.2093C34.08 42.3135 29.6647 43.7047 22.4612 45.6361L22.2212 45.7001C22.1748 45.7126 22.1293 45.7267 22.0849 45.7424L15.62 48.0526V39.0685L18.8044 38.4995C19.1116 38.4446 19.3843 38.3178 19.5792 38.1394C19.7741 37.961 19.88 37.7412 19.88 37.5148V25.8255C19.8799 25.6226 19.931 25.4213 20.0307 25.2313L32.1663 2.0985C32.7104 2.23309 33.1844 2.48254 33.5259 2.81387C33.8673 3.1452 34.0601 3.5428 34.0786 3.95411L30.6034 21.343C29.2169 21.4558 27.9368 21.9291 27.0068 22.6728C26.0768 23.4164 25.5619 24.3786 25.56 25.3761V31.4663C25.56 31.7355 25.7096 31.9936 25.9759 32.184C26.2422 32.3744 26.6034 32.4813 26.98 32.4813C27.3566 32.4813 27.7178 32.3744 27.9841 32.184C28.2504 31.9936 28.4 31.7355 28.4 31.4663V25.3761C28.4115 24.8402 28.7144 24.3287 29.2445 23.9497C29.7747 23.5708 30.4904 23.3542 31.24 23.346C31.343 23.3457 31.4457 23.3373 31.5462 23.321C31.5777 23.3258 31.6077 23.3341 31.6399 23.3374C32.3137 23.4064 32.9306 23.6458 33.3784 24.0123C33.8261 24.3788 34.0751 24.8479 34.08 25.3345V38.2093ZM33.4208 21.5994L35.5 11.1959L37.5792 21.5994C36.7809 21.8403 36.0699 22.2079 35.5 22.6745C34.9301 22.2079 34.2191 21.8403 33.4208 21.5994ZM55.38 48.0526L48.9151 45.7421C48.8707 45.7264 48.8252 45.7122 48.7788 45.6998L48.5388 45.6357C41.3353 43.7047 36.92 42.3135 36.92 38.2093V25.3345C36.9249 24.8479 37.1739 24.3788 37.6216 24.0123C38.0694 23.6458 38.6863 23.4064 39.3601 23.3374C39.3923 23.3341 39.4223 23.3258 39.4538 23.321C39.5543 23.3373 39.657 23.3457 39.76 23.346C40.5096 23.3542 41.2253 23.5708 41.7555 23.9497C42.2856 24.3287 42.5885 24.8402 42.6 25.3761V31.4663C42.6 31.7355 42.7496 31.9936 43.0159 32.184C43.2822 32.3744 43.6434 32.4813 44.02 32.4813C44.3966 32.4813 44.7578 32.3744 45.0241 32.184C45.2904 31.9936 45.44 31.7355 45.44 31.4663V25.3761C45.4381 24.3786 44.9232 23.4164 43.9932 22.6728C43.0632 21.9291 41.7831 21.4558 40.3966 21.343L36.9214 3.95411C36.9399 3.54279 37.1326 3.14518 37.4741 2.81385C37.8155 2.48251 38.2896 2.23307 38.8337 2.0985L50.9693 25.232C51.0691 25.4217 51.1201 25.6228 51.12 25.8255V37.5148C51.12 37.7412 51.2259 37.961 51.4208 38.1394C51.6157 38.3178 51.8884 38.4446 52.1956 38.4995L55.38 39.0685V48.0526ZM68.16 53.0786C68.1593 53.5271 67.9098 53.9571 67.4661 54.2743C67.0224 54.5915 66.4208 54.7698 65.7933 54.7703H60.5867C59.9592 54.7698 59.3576 54.5915 58.9139 54.2743C58.4702 53.9571 58.2206 53.5271 58.22 53.0786V38.2253C58.2206 37.7775 58.4691 37.3481 58.9111 37.0308C59.3531 36.7134 59.9528 36.534 60.5793 36.5317C60.8364 36.5318 61.0917 36.5617 61.3355 36.6202L66.5417 37.8605C67.0131 37.9726 67.4232 38.188 67.7137 38.4761C68.0042 38.7642 68.1603 39.1104 68.16 39.4656V53.0786Z" fill="#F09259"/>
</g>
<defs>
<clipPath id="clip0_11_2070">
<rect width="71" height="71" fill="white"/>
</clipPath>
</defs>
</svg>
