<svg width="71" height="71" viewBox="0 0 71 71" fill="none" xmlns="http://www.w3.org/2000/svg">
<g clip-path="url(#clip0_11_2162)">
<path d="M63.6041 11.8334H55.7152V17.75C55.7152 18.3198 55.603 18.884 55.3849 19.4104C55.1669 19.9369 54.8473 20.4152 54.4444 20.8181C54.0415 21.221 53.5631 21.5406 53.0367 21.7586C52.5103 21.9767 51.9461 22.0889 51.3763 22.0889C50.8065 22.0889 50.2423 21.9767 49.7159 21.7586C49.1895 21.5406 48.7111 21.221 48.3082 20.8181C47.9053 20.4152 47.5857 19.9369 47.3677 19.4104C47.1496 18.884 47.0374 18.3198 47.0374 17.75V11.8334H24.061V17.75C24.061 18.9008 23.6039 20.0044 22.7902 20.8181C21.9765 21.6318 20.8729 22.0889 19.7221 22.0889C18.5714 22.0889 17.4678 21.6318 16.6541 20.8181C15.8404 20.0044 15.3832 18.9008 15.3832 17.75V11.8334H7.49435C7.02501 11.828 6.55936 11.9168 6.12495 12.0946C5.69054 12.2724 5.29618 12.5354 4.9652 12.8682C4.63423 13.201 4.37335 13.5969 4.19801 14.0322C4.02267 14.4676 3.93641 14.9338 3.94435 15.4031V59.5414C3.93652 60.0024 4.01958 60.4605 4.1888 60.8894C4.35802 61.3183 4.61008 61.7097 4.93059 62.0412C5.25109 62.3727 5.63376 62.6378 6.05674 62.8214C6.47971 63.005 6.93471 63.1034 7.39574 63.1111H63.6041C64.0651 63.1034 64.5201 63.005 64.9431 62.8214C65.3661 62.6378 65.7487 62.3727 66.0692 62.0412C66.3897 61.7097 66.6418 61.3183 66.811 60.8894C66.9802 60.4605 67.0633 60.0024 67.0555 59.5414V15.4031C67.0633 14.942 66.9802 14.484 66.811 14.0551C66.6418 13.6261 66.3897 13.2348 66.0692 12.9033C65.7487 12.5718 65.3661 12.3067 64.9431 12.1231C64.5201 11.9395 64.0651 11.8411 63.6041 11.8334ZM19.7221 51.2778H15.7777V47.3334H19.7221V51.2778ZM19.7221 41.4167H15.7777V37.4722H19.7221V41.4167ZM19.7221 31.5556H15.7777V27.6111H19.7221V31.5556ZM31.5555 51.2778H27.611V47.3334H31.5555V51.2778ZM31.5555 41.4167H27.611V37.4722H31.5555V41.4167ZM31.5555 31.5556H27.611V27.6111H31.5555V31.5556ZM43.3888 51.2778H39.4444V47.3334H43.3888V51.2778ZM43.3888 41.4167H39.4444V37.4722H43.3888V41.4167ZM43.3888 31.5556H39.4444V27.6111H43.3888V31.5556ZM55.2221 51.2778H51.2777V47.3334H55.2221V51.2778ZM55.2221 41.4167H51.2777V37.4722H55.2221V41.4167ZM55.2221 31.5556H51.2777V27.6111H55.2221V31.5556Z" fill="#FFFFFF"/>
<path d="M19.7222 19.7222C20.2453 19.7222 20.7469 19.5144 21.1168 19.1446C21.4867 18.7747 21.6944 18.2731 21.6944 17.75V5.91668C21.6944 5.39361 21.4867 4.89197 21.1168 4.52211C20.7469 4.15225 20.2453 3.94446 19.7222 3.94446C19.1992 3.94446 18.6975 4.15225 18.3277 4.52211C17.9578 4.89197 17.75 5.39361 17.75 5.91668V17.75C17.75 18.2731 17.9578 18.7747 18.3277 19.1446C18.6975 19.5144 19.1992 19.7222 19.7222 19.7222Z" fill="#FFFFFF"/>
<path d="M51.2779 19.7222C51.801 19.7222 52.3026 19.5144 52.6725 19.1446C53.0423 18.7747 53.2501 18.2731 53.2501 17.75V5.91668C53.2501 5.39361 53.0423 4.89197 52.6725 4.52211C52.3026 4.15225 51.801 3.94446 51.2779 3.94446C50.7548 3.94446 50.2532 4.15225 49.8833 4.52211C49.5134 4.89197 49.3057 5.39361 49.3057 5.91668V17.75C49.3057 18.2731 49.5134 18.7747 49.8833 19.1446C50.2532 19.5144 50.7548 19.7222 51.2779 19.7222Z" fill="#FFFFFF"/>
</g>
<defs>
<clipPath id="clip0_11_2162">
<rect width="71" height="71" fill="white"/>
</clipPath>
</defs>
</svg>
