<svg width="71" height="71" viewBox="0 0 71 71" fill="none" xmlns="http://www.w3.org/2000/svg">
<path fill-rule="evenodd" clip-rule="evenodd" d="M42.1561 7.39583C42.1561 7.19968 42.0782 7.01157 41.9395 6.87287C41.8008 6.73417 41.6127 6.65625 41.4165 6.65625H20.7082C18.5505 6.65625 16.4812 7.51337 14.9556 9.03906C13.4299 10.5647 12.5728 12.634 12.5728 14.7917V56.2083C12.5728 58.366 13.4299 60.4353 14.9556 61.9609C16.4812 63.4866 18.5505 64.3438 20.7082 64.3438H50.2915C52.4492 64.3438 54.5184 63.4866 56.0441 61.9609C57.5698 60.4353 58.4269 58.366 58.4269 56.2083V27.0599C58.4269 26.8637 58.349 26.6756 58.2103 26.5369C58.0716 26.3982 57.8835 26.3203 57.6873 26.3203H44.3748C43.7864 26.3203 43.222 26.0865 42.8059 25.6704C42.3899 25.2543 42.1561 24.69 42.1561 24.1015V7.39583ZM44.3748 36.2396C44.9633 36.2396 45.5276 36.4733 45.9437 36.8894C46.3598 37.3055 46.5936 37.8699 46.5936 38.4583C46.5936 39.0468 46.3598 39.6111 45.9437 40.0272C45.5276 40.4433 44.9633 40.6771 44.3748 40.6771H26.6248C26.0364 40.6771 25.472 40.4433 25.0559 40.0272C24.6398 39.6111 24.4061 39.0468 24.4061 38.4583C24.4061 37.8699 24.6398 37.3055 25.0559 36.8894C25.472 36.4733 26.0364 36.2396 26.6248 36.2396H44.3748ZM44.3748 48.0729C44.9633 48.0729 45.5276 48.3067 45.9437 48.7228C46.3598 49.1389 46.5936 49.7032 46.5936 50.2917C46.5936 50.8801 46.3598 51.4445 45.9437 51.8606C45.5276 52.2767 44.9633 52.5104 44.3748 52.5104H26.6248C26.0364 52.5104 25.472 52.2767 25.0559 51.8606C24.6398 51.4445 24.4061 50.8801 24.4061 50.2917C24.4061 49.7032 24.6398 49.1389 25.0559 48.7228C25.472 48.3067 26.0364 48.0729 26.6248 48.0729H44.3748Z" fill="#F09259"/>
<path d="M46.5938 8.35431C46.5938 7.80997 47.1647 7.46385 47.5878 7.80406C47.9457 8.09397 48.2682 8.43122 48.5433 8.81581L57.4568 21.2319C57.6579 21.5159 57.439 21.8828 57.0899 21.8828H47.3333C47.1372 21.8828 46.9491 21.8048 46.8104 21.6661C46.6717 21.5274 46.5938 21.3393 46.5938 21.1432V8.35431Z" fill="#F09259"/>
</svg>
