<svg width="43" height="43" viewBox="0 0 43 43" fill="none" xmlns="http://www.w3.org/2000/svg">
<rect width="43" height="43" rx="21.5" fill="white"/>
<path d="M26.0978 9.35327C27.9444 9.35327 29.6542 9.93745 31.0519 10.9348L18.0376 23.9477C17.9015 24.0791 17.793 24.2363 17.7183 24.4102C17.6436 24.584 17.6043 24.771 17.6027 24.9602C17.6011 25.1493 17.6371 25.337 17.7087 25.5121C17.7804 25.6872 17.8862 25.8463 18.02 25.98C18.1537 26.1138 18.3128 26.2196 18.4879 26.2913C18.663 26.3629 18.8507 26.3989 19.0398 26.3973C19.229 26.3957 19.416 26.3564 19.5898 26.2817C19.7637 26.207 19.9209 26.0985 20.0523 25.9624L33.0666 12.9481C34.0969 14.3943 34.6494 16.1265 34.6467 17.9022V32.1504C34.6467 32.9061 34.3465 33.631 33.8121 34.1654C33.2777 34.6998 32.5529 35 31.7971 35H11.8496C11.0939 35 10.369 34.6998 9.83464 34.1654C9.30023 33.631 9 32.9061 9 32.1504V12.2029C9 11.4471 9.30023 10.7223 9.83464 10.1879C10.369 9.6535 11.0939 9.35327 11.8496 9.35327H26.0978ZM35.5828 8.41717C35.8499 8.68436 36 9.0467 36 9.42451C36 9.80232 35.8499 10.1647 35.5828 10.4319L33.0652 12.9481C32.5103 12.1692 31.8294 11.4883 31.0505 10.9334L33.5667 8.41717C33.8339 8.15006 34.1962 8 34.5741 8C34.9519 8 35.3156 8.15006 35.5828 8.41717Z" fill="#669BEB"/>
</svg>
