<svg width="55" height="55" viewBox="0 0 55 55" fill="none" xmlns="http://www.w3.org/2000/svg">
<path d="M18.625 18.625C22.4412 18.625 26.0208 19.8379 28.8904 21.9087L44.0075 6.79167H30.4583V0.875H54.125V24.5417H48.2083V10.9629L33.0913 26.0208C35.1621 28.9792 36.375 32.5292 36.375 36.375C36.375 41.0826 34.5049 45.5974 31.1761 48.9261C27.8474 52.2549 23.3326 54.125 18.625 54.125C13.9174 54.125 9.40263 52.2549 6.07385 48.9261C2.74508 45.5974 0.875 41.0826 0.875 36.375C0.875 31.6674 2.74508 27.1526 6.07385 23.8239C9.40263 20.4951 13.9174 18.625 18.625 18.625ZM18.625 24.5417C15.4866 24.5417 12.4767 25.7884 10.2576 28.0076C8.03839 30.2267 6.79167 33.2366 6.79167 36.375C6.79167 39.5134 8.03839 42.5232 10.2576 44.7424C12.4767 46.9616 15.4866 48.2083 18.625 48.2083C21.7634 48.2083 24.7733 46.9616 26.9924 44.7424C29.2116 42.5232 30.4583 39.5134 30.4583 36.375C30.4583 33.2366 29.2116 30.2267 26.9924 28.0076C24.7733 25.7884 21.7634 24.5417 18.625 24.5417Z" fill="#F09259"/>
</svg>
