<svg width="42" height="60" viewBox="0 0 42 60" fill="none" xmlns="http://www.w3.org/2000/svg">
<path d="M21.0002 28.5417C19.0663 28.5417 17.2116 27.7735 15.8442 26.406C14.4767 25.0386 13.7085 23.1839 13.7085 21.25C13.7085 19.3162 14.4767 17.4615 15.8442 16.0941C17.2116 14.7266 19.0663 13.9584 21.0002 13.9584C22.934 13.9584 24.7887 14.7266 26.1562 16.0941C27.5236 17.4615 28.2918 19.3162 28.2918 21.25C28.2918 22.2076 28.1032 23.1558 27.7368 24.0404C27.3703 24.9251 26.8332 25.7289 26.1562 26.406C25.4791 27.0831 24.6752 27.6202 23.7906 27.9867C22.9059 28.3531 21.9577 28.5417 21.0002 28.5417ZM21.0002 0.833374C15.5853 0.833374 10.3923 2.98441 6.5634 6.81328C2.73453 10.6421 0.583496 15.8352 0.583496 21.25C0.583496 36.5625 21.0002 59.1667 21.0002 59.1667C21.0002 59.1667 41.4168 36.5625 41.4168 21.25C41.4168 15.8352 39.2658 10.6421 35.4369 6.81328C31.6081 2.98441 26.415 0.833374 21.0002 0.833374Z" fill="#F09259"/>
</svg>
