<svg width="39" height="34" viewBox="0 0 39 34" fill="none" xmlns="http://www.w3.org/2000/svg">
<mask id="mask0_38_3847" style="mask-type:luminance" maskUnits="userSpaceOnUse" x="0" y="0" width="39" height="34">
<path d="M38.5799 0.790039H0.419922V33.19H38.5799V0.790039Z" fill="white"/>
</mask>
<g mask="url(#mask0_38_3847)">
<path d="M9.96027 14.2901C8.21127 14.2901 6.78027 15.5051 6.78027 16.9901C6.78027 18.4751 8.21127 19.6901 9.96027 19.6901C11.7093 19.6901 13.1403 18.4751 13.1403 16.9901C13.1403 15.5051 11.7093 14.2901 9.96027 14.2901ZM29.0403 14.2901C27.2913 14.2901 25.8603 15.5051 25.8603 16.9901C25.8603 18.4751 27.2913 19.6901 29.0403 19.6901C30.7893 19.6901 32.2203 18.4751 32.2203 16.9901C32.2203 15.5051 30.7893 14.2901 29.0403 14.2901ZM19.5003 14.2901C17.7513 14.2901 16.3203 15.5051 16.3203 16.9901C16.3203 18.4751 17.7513 19.6901 19.5003 19.6901C21.2493 19.6901 22.6803 18.4751 22.6803 16.9901C22.6803 15.5051 21.2493 14.2901 19.5003 14.2901Z" fill="white"/>
</g>
</svg>
