<svg width="72" height="82" viewBox="0 0 72 82" fill="none" xmlns="http://www.w3.org/2000/svg">
<path d="M61.1695 14.3698C61.5266 14.0415 61.4258 13.7463 60.942 13.7103L57.1447 13.4266C56.6608 13.392 56.0949 13.716 55.8818 14.1509L51.8037 22.49C51.5877 22.922 51.7087 23.0112 52.0658 22.6858L61.1695 14.3698Z" fill="#F09259"/>
<path d="M40.4854 12.1825C40.0045 12.1465 39.8605 12.423 40.1672 12.7945L47.8784 22.1674C48.188 22.5418 48.3262 22.467 48.1851 22.0047L45.6147 13.3921C45.4794 12.9284 44.971 12.5194 44.4901 12.4834L40.4854 12.1825Z" fill="#F09259"/>
<path d="M54.5543 14.0516C54.7645 13.6167 54.5428 13.2322 54.0618 13.1962L47.5617 12.7109C47.0778 12.6749 46.7999 13.0248 46.9367 13.4885L49.6756 22.6642C49.8138 23.1279 50.1004 23.1524 50.3106 22.7189L54.5543 14.0516Z" fill="#F09259"/>
<path d="M49.4824 7.45203C49.8164 7.10499 49.7013 6.79251 49.2174 6.75795L45.0241 6.44403C44.5403 6.40803 44.3545 6.71475 44.6109 7.12515L46.1632 9.63507C46.4195 10.0469 46.9033 10.0988 47.2403 9.75171L49.4824 7.45203Z" fill="#F09259"/>
<path d="M57.4199 8.04246C57.7598 7.6983 57.6417 7.38582 57.1607 7.34982L52.6363 7.01286C52.1524 6.97686 51.9839 7.27206 52.259 7.66806L54.0532 10.2356C54.3283 10.633 54.8323 10.6777 55.1692 10.3306L57.4199 8.04246Z" fill="#F09259"/>
<path d="M40.1902 10.2269C39.8532 10.5753 39.9771 10.8907 40.4581 10.9267L44.8817 11.2565C45.3627 11.291 45.5484 10.9857 45.2921 10.5739L43.6304 7.8883C43.374 7.4779 42.8931 7.42606 42.5561 7.7731L40.1902 10.2269Z" fill="#F09259"/>
<path d="M61.1495 12.4734C61.6305 12.5079 61.7961 12.2142 61.5153 11.821L59.4762 8.95112C59.1954 8.55656 58.6857 8.5148 58.3487 8.8604L55.8518 11.4034C55.5148 11.749 55.63 12.0615 56.111 12.0961L61.1495 12.4734Z" fill="#F09259"/>
<path d="M47.939 10.8102C47.602 11.1572 47.7172 11.4682 48.2011 11.5042L52.8422 11.8513C53.3231 11.8858 53.4916 11.5892 53.2166 11.1961L51.3604 8.53351C51.0825 8.14039 50.5785 8.09719 50.2415 8.44279L47.939 10.8102Z" fill="#F09259"/>
<path d="M34.6724 25.537L30.6245 24.0235C32.2877 19.5754 35.5248 15.8947 39.7412 13.6627L41.7629 17.4787C38.484 19.2182 35.964 22.0795 34.6724 25.537Z" fill="#F09259"/>
<path d="M48.839 50.2748C48.3551 50.2748 47.8684 50.2561 47.3788 50.2201C38.5055 49.5577 31.2292 42.9812 29.6855 34.226L33.9407 33.4757C35.1403 40.2841 40.7966 45.3975 47.6985 45.9116C56.0116 46.5135 63.2735 40.2769 63.8927 31.9666C64.2556 27.1225 62.2425 22.3618 58.5071 19.237L61.2806 15.9236C66.0787 19.9397 68.6663 26.0569 68.2027 32.2877C67.4409 42.4844 58.8988 50.2733 48.839 50.2748Z" fill="#F09259"/>
<path d="M24.8373 65.5589C13.7997 65.5589 4.81982 56.5791 4.81982 45.5415C4.81982 34.5024 13.7997 25.524 24.8373 25.524C34.3326 25.524 42.5824 32.2704 44.4573 41.5628L40.2222 42.4181C38.7534 35.1317 32.2835 29.844 24.8373 29.844C16.1814 29.844 9.13982 36.8856 9.13982 45.5415C9.13982 54.1973 16.1829 61.2389 24.8373 61.2389C31.7277 61.2389 37.9168 56.6324 39.8824 50.0372L44.0224 51.2712C41.5125 59.6837 33.6241 65.5589 24.8373 65.5589Z" fill="#F09259"/>
</svg>
