<svg width="51" height="50" viewBox="0 0 51 50" fill="none" xmlns="http://www.w3.org/2000/svg">
<g clip-path="url(#clip0_10_92)">
<path d="M39.6819 35.6496L37.1677 32.9961V22.711C37.1677 16.396 33.9715 11.1094 28.3976 9.71074V8.31195C28.3976 6.60464 27.0918 5.22644 25.4742 5.22644C23.8566 5.22644 22.5508 6.60464 22.5508 8.31195V9.71074C16.9574 11.1094 13.7807 16.3754 13.7807 22.711V32.9961L11.2665 35.6496C10.0387 36.9455 10.8962 39.1671 12.6308 39.1671H38.2981C40.0522 39.1671 40.9097 36.9455 39.6819 35.6496ZM33.2699 35.0531H17.6785V22.711C17.6785 17.6096 20.6214 13.4544 25.4742 13.4544C30.327 13.4544 33.2699 17.6096 33.2699 22.711V35.0531ZM25.4742 45.3381C27.618 45.3381 29.372 43.4868 29.372 41.224H21.5764C21.5764 43.4868 23.3109 45.3381 25.4742 45.3381Z" fill="#A57250"/>
</g>
<defs>
<clipPath id="clip0_10_92">
<rect width="50" height="50" fill="white" transform="translate(0.474365)"/>
</clipPath>
</defs>
</svg>
