<svg width="27" height="27" viewBox="0 0 27 27" fill="none" xmlns="http://www.w3.org/2000/svg">
<circle cx="13.5" cy="13.5" r="13.5" fill="white"/>
<path d="M19 12.75V19.9375C19 20.1427 18.9596 20.3459 18.8811 20.5354C18.8025 20.725 18.6874 20.8973 18.5424 21.0424C18.3973 21.1874 18.225 21.3025 18.0354 21.3811C17.8459 21.4596 17.6427 21.5 17.4375 21.5H8.0625C7.6481 21.5 7.25067 21.3354 6.95765 21.0424C6.66462 20.7493 6.5 20.3519 6.5 19.9375V10.5625C6.5 10.1481 6.66462 9.75067 6.95765 9.45765C7.25067 9.16462 7.6481 9 8.0625 9H14.6047M17.125 6.5H21.5V10.875M12.75 15.25L21.1875 6.8125" stroke="#669BEB" stroke-width="2.75862" stroke-linecap="round" stroke-linejoin="round"/>
</svg>
