<svg width="14" height="14" viewBox="0 0 14 14" fill="none" xmlns="http://www.w3.org/2000/svg">
<g clip-path="url(#clip0_33_3300)">
<path d="M3.26647 7.46678H2.7998V6.53345H3.26647C3.39024 6.53345 3.50894 6.58261 3.59645 6.67013C3.68397 6.75765 3.73314 6.87635 3.73314 7.00011C3.73314 7.12388 3.68397 7.24258 3.59645 7.3301C3.50894 7.41761 3.39024 7.46678 3.26647 7.46678ZM6.53314 9.33345V6.53345H6.9998C7.12357 6.53345 7.24227 6.58261 7.32979 6.67013C7.4173 6.75765 7.46647 6.87635 7.46647 7.00011V8.86678C7.46647 8.99055 7.4173 9.10925 7.32979 9.19676C7.24227 9.28428 7.12357 9.33345 6.9998 9.33345H6.53314Z" fill="white"/>
<path fill-rule="evenodd" clip-rule="evenodd" d="M0.933105 1.4C0.933105 1.0287 1.08061 0.672601 1.34316 0.410051C1.60571 0.1475 1.9618 0 2.33311 0L9.99297 0L13.0664 3.07347V12.6C13.0664 12.9713 12.9189 13.3274 12.6564 13.5899C12.3938 13.8525 12.0377 14 11.6664 14H2.33311C1.9618 14 1.60571 13.8525 1.34316 13.5899C1.08061 13.3274 0.933105 12.9713 0.933105 12.6V1.4ZM3.26644 5.6H1.86644V10.2667H2.79977V8.4H3.26644C3.63774 8.4 3.99384 8.2525 4.25639 7.98995C4.51894 7.7274 4.66644 7.3713 4.66644 7C4.66644 6.6287 4.51894 6.2726 4.25639 6.01005C3.99384 5.7475 3.63774 5.6 3.26644 5.6ZM6.99977 5.6H5.59977V10.2667H6.99977C7.37108 10.2667 7.72717 10.1192 7.98972 9.85662C8.25227 9.59407 8.39977 9.23797 8.39977 8.86667V7C8.39977 6.6287 8.25227 6.2726 7.98972 6.01005C7.72717 5.7475 7.37108 5.6 6.99977 5.6ZM9.33311 10.2667V5.6H12.1331V6.53333H10.2664V7.46667H11.1998V8.4H10.2664V10.2667H9.33311Z" fill="white"/>
</g>
<defs>
<clipPath id="clip0_33_3300">
<rect width="14" height="14" fill="white"/>
</clipPath>
</defs>
</svg>
