<svg width="88" height="88" viewBox="0 0 88 88" fill="none" xmlns="http://www.w3.org/2000/svg">
<g filter="url(#filter0_d_10_269)">
<rect x="4" y="2" width="80" height="80" rx="40" fill="white" shape-rendering="crispEdges"/>
<g clip-path="url(#clip0_10_269)">
<g clip-path="url(#clip1_10_269)">
<mask id="mask0_10_269" style="mask-type:luminance" maskUnits="userSpaceOnUse" x="16" y="10" width="56" height="64">
<path d="M16.0727 10.2255H71.9272V73.0619H16.0727V10.2255Z" fill="white"/>
</mask>
<g mask="url(#mask0_10_269)">
<path d="M32.7743 43.9385C31.1682 44.0913 29.6062 44.4213 28.117 45.0283C21.7956 47.604 17.888 52.3005 16.4421 59.0926C15.9868 61.2323 15.9473 63.41 16.3577 65.5744C16.978 68.8449 18.9063 70.9221 21.9752 71.9438C23.7285 72.527 25.539 72.8427 27.3697 72.8807C32.1036 72.9803 36.8391 73.0238 41.5739 73.0453C46.839 73.0698 52.1049 73.0682 57.3701 73.0311C59.8063 73.0136 62.2426 72.8901 64.6355 72.3425C65.9118 72.0498 67.1384 71.62 68.2543 70.9071C70.2406 69.6378 71.3233 67.7497 71.6949 65.4334C73.2128 55.9834 67.1538 46.5666 57.645 44.3335C56.8589 44.149 56.0552 44.0414 55.2768 43.9021C54.6775 46.4692 53.3517 48.6145 52.0398 50.7456C50.3177 53.5438 48.4846 56.2698 46.698 59.026C46.65 59.0997 46.5904 59.1653 46.4789 59.307C46.4184 58.5006 46.3604 57.775 46.3116 57.0485C46.1963 55.3266 46.0932 53.6031 45.9671 51.882C45.9499 51.6445 46.0181 51.5337 46.2055 51.4143C47.2587 50.7385 47.9502 49.792 48.1981 48.533C48.2275 48.3827 48.2267 48.2259 48.2445 48.0218C45.4179 49.1851 42.6301 49.1906 39.7454 48.0012C39.8384 48.4333 39.8787 48.7958 39.9948 49.1296C40.341 50.1196 40.9775 50.8769 41.8434 51.4435C41.9479 51.5116 42.064 51.6769 42.057 51.7893C41.9053 54.2488 41.7364 56.7066 41.5692 59.1653C41.5676 59.1851 41.5436 59.2033 41.5002 59.2635C41.2447 58.89 40.9961 58.5299 40.7522 58.1675C38.4553 54.7608 36.1801 51.3398 34.2604 47.691C33.8407 46.8926 33.4782 46.0609 33.1297 45.2268C32.9655 44.8328 32.8974 44.3976 32.7743 43.9385Z" fill="#F09259"/>
<path d="M57.9633 25.4023C57.851 20.4051 56.1272 16.3662 52.4527 13.2974C49.8227 11.1015 46.7646 10.049 43.372 10.2492C38.8564 10.5159 35.3213 12.6643 32.7433 16.4295C30.7344 19.363 29.9066 22.6652 30.1289 26.2231C30.3481 29.7215 30.9452 33.1448 32.3599 36.375C33.5006 38.98 34.9992 41.3224 37.1605 43.1725C39.1089 44.8398 41.326 45.8393 43.8932 45.8836C46.0041 45.92 47.9309 45.2671 49.681 44.0786C52.4232 42.215 54.2485 39.587 55.5882 36.572C56.8465 33.7391 57.5273 30.7541 57.7673 27.6577C57.8301 26.8442 57.9082 26.0323 57.9633 25.4023Z" fill="#F09259"/>
</g>
</g>
</g>
</g>
<defs>
<filter id="filter0_d_10_269" x="0" y="0" width="88" height="88" filterUnits="userSpaceOnUse" color-interpolation-filters="sRGB">
<feFlood flood-opacity="0" result="BackgroundImageFix"/>
<feColorMatrix in="SourceAlpha" type="matrix" values="0 0 0 0 0 0 0 0 0 0 0 0 0 0 0 0 0 0 127 0" result="hardAlpha"/>
<feOffset dy="2"/>
<feGaussianBlur stdDeviation="2"/>
<feComposite in2="hardAlpha" operator="out"/>
<feColorMatrix type="matrix" values="0 0 0 0 0 0 0 0 0 0 0 0 0 0 0 0 0 0 0.075 0"/>
<feBlend mode="normal" in2="BackgroundImageFix" result="effect1_dropShadow_10_269"/>
<feBlend mode="normal" in="SourceGraphic" in2="effect1_dropShadow_10_269" result="shape"/>
</filter>
<clipPath id="clip0_10_269">
<rect width="64" height="64" fill="white" transform="translate(12 10)"/>
</clipPath>
<clipPath id="clip1_10_269">
<rect width="55.8545" height="64" fill="white" transform="translate(16.0728 10)"/>
</clipPath>
</defs>
</svg>
