<svg width="92" height="92" viewBox="0 0 92 92" fill="none" xmlns="http://www.w3.org/2000/svg">
<g filter="url(#filter0_d_10_223)">
<rect x="4" y="2" width="84" height="84" rx="42" fill="white" shape-rendering="crispEdges"/>
<g clip-path="url(#clip0_10_223)">
<g clip-path="url(#clip1_10_223)">
<mask id="mask0_10_223" style="mask-type:luminance" maskUnits="userSpaceOnUse" x="16" y="12" width="60" height="64">
<path d="M75.5385 12.2566H16.4615V75.0258H75.5385V12.2566Z" fill="white"/>
</mask>
<g mask="url(#mask0_10_223)">
<path d="M75.5161 47.2916C75.5161 54.0753 75.4966 60.859 75.5357 67.6428C75.5411 68.6805 75.3097 69.0431 74.6675 69.2927C69.9919 71.1134 65.3287 73.0078 60.6531 74.8338C59.3276 75.3513 58.011 74.684 56.7016 74.4869C52.759 73.8905 48.8235 73.1706 44.8862 72.498C40.4489 71.7413 36.0118 70.9768 31.5727 70.2254C27.1925 69.4845 22.814 68.7252 18.4301 68.0447C16.4819 67.7426 16.4748 67.8215 16.4748 64.9813C16.4748 52.3334 16.4819 39.6855 16.4606 27.0376C16.4588 26.0209 16.562 25.5951 17.3537 25.3508C31.3095 21.0604 45.2545 16.6991 59.1996 12.343C59.7688 12.1643 60.2492 12.251 60.7794 12.7187C65.4141 16.8173 70.0648 20.8765 74.7226 24.9148C75.2813 25.3981 75.5447 25.8894 75.5375 26.9404C75.493 33.7241 75.5161 40.5079 75.5161 47.2916ZM20.0331 65.3833C21.0224 65.667 22.0133 65.9481 23.0275 65.646C23.6306 65.4674 23.3922 64.7501 23.3922 64.2615C23.4046 52.1469 23.4029 40.0323 23.4011 27.9177C23.4011 27.613 23.4064 27.3029 23.3833 27.0008C23.3548 26.5988 23.1591 26.5384 22.9296 26.5778C21.9795 26.8301 21.0295 27.0823 20.0794 27.3345C19.551 27.3476 19.6702 27.9388 19.6702 28.3801C19.6649 40.3817 19.6666 52.3807 19.6684 64.3822C19.6702 64.8001 19.5919 65.3018 20.0331 65.3833ZM34.7948 23.6221C34.2006 23.8191 34.4425 24.5285 34.4408 25.0172C34.4265 32.9175 34.4301 40.8205 34.4301 48.7208C34.4301 54.4405 34.4248 60.1576 34.4408 65.8772C34.4425 66.3528 34.1953 67.1016 34.8446 67.1857C36.1843 67.2513 37.5116 67.69 38.8601 67.4746C39.4223 67.3406 39.2214 66.6812 39.2231 66.2213C39.2392 63.2893 39.2321 60.3572 39.2321 57.4277C39.2321 46.2696 39.2356 35.1139 39.2214 23.9557C39.2214 23.4749 39.4686 22.7472 38.8531 22.5843C37.476 22.7183 36.1239 23.073 34.7948 23.6221ZM49.5903 19.7074C49.0654 19.752 49.1971 20.3458 49.1971 20.7846C49.1917 36.3593 49.1917 51.9341 49.1953 67.5061C49.1953 67.9186 49.0993 68.4284 49.5387 68.5335C49.7522 69.0378 50.124 68.9039 50.423 68.9459C51.542 69.1036 52.67 69.1351 53.7855 69.3217C54.5043 69.4425 54.7143 69.1823 54.7124 68.0447C54.6823 51.9971 54.6929 35.9495 54.6911 19.9018C54.6911 19.597 54.6769 19.287 54.6929 18.9849C54.7214 18.4121 54.5222 18.3359 54.2001 18.4279C52.6647 18.8614 51.1274 19.2817 49.5903 19.7074ZM73.6748 66.9203C74.3277 66.8467 74.0822 66.0926 74.0822 65.6172C74.0982 59.1907 74.0929 52.7642 74.0929 46.3379C74.0929 40.3476 74.0982 34.3599 74.0822 28.3697C74.0804 27.8941 74.3259 27.14 73.6712 27.0717C69.1628 23.3935 64.6545 19.7126 60.0446 15.9529C60.0446 16.4942 60.0446 16.8725 60.0446 17.2508C60.0446 34.8906 60.0553 52.5304 60.0233 70.1703C60.0215 71.4498 60.235 71.5391 60.9982 71.2685C65.2167 69.7788 69.4475 68.3626 73.6748 66.9203ZM46.7436 44.5802H46.7471C46.7471 36.9215 46.7311 29.2655 46.765 21.6069C46.7703 20.5324 46.5586 20.3642 45.9128 20.5796C45.0214 20.8792 44.1176 21.1182 43.2103 21.2785C42.4861 21.4046 42.1978 21.7488 42.2033 22.9653C42.246 33.6847 42.2281 44.4068 42.2281 55.1262C42.2281 58.9779 42.246 62.8269 42.2157 66.6786C42.2086 67.6008 42.2833 68.113 43.034 68.1183C43.9788 68.1262 44.9271 68.2812 45.8647 68.4652C46.5283 68.5939 46.7686 68.3969 46.7633 67.2881C46.7258 59.7188 46.7436 52.1495 46.7436 44.5802ZM30.8771 45.66C30.8771 38.9656 30.8682 32.2686 30.8895 25.5742C30.8931 24.7703 30.7935 24.4733 30.2206 24.6782C29.5908 24.9042 28.9468 25.1485 28.3044 25.1774C27.5768 25.2116 27.4576 25.6845 27.4593 26.6435C27.4789 38.6766 27.4682 50.7123 27.4789 62.7454C27.4807 63.9146 27.1338 65.5172 27.6212 66.1426C28.1319 66.7967 29.1905 66.4788 29.9999 66.6786C30.781 66.8729 30.9002 66.3975 30.895 65.3491C30.8593 58.7861 30.8771 52.2231 30.8771 45.66Z" fill="#F09259"/>
<path d="M49.5895 19.7076C49.5842 35.461 49.5788 51.2118 49.5717 66.9651C49.5717 67.4881 49.5503 68.0135 49.5396 68.5363C49.1002 68.4312 49.1962 67.9216 49.1962 67.509C49.1928 51.9344 49.1928 36.3596 49.1981 20.7875C49.1962 20.3487 49.0664 19.7523 49.5895 19.7076Z" fill="#242424"/>
<path d="M38.8594 67.475C38.8577 52.5124 38.8541 37.5472 38.8523 22.5846C39.4679 22.7475 39.2188 23.4753 39.2207 23.9561C39.2348 35.1142 39.2312 46.2699 39.2312 57.4281C39.2312 60.3601 39.2402 63.2922 39.2224 66.2217C39.2207 66.6789 39.4216 67.3409 38.8594 67.475Z" fill="#1E1E1E"/>
<path d="M34.794 23.6224C34.7993 37.5314 34.8047 51.4431 34.8119 65.352C34.8119 65.9642 34.8331 66.5738 34.8439 67.186C34.1962 67.1019 34.4418 66.3531 34.4399 65.8775C34.4239 60.1579 34.4293 54.4409 34.4293 48.7211C34.4293 40.8208 34.4258 32.9178 34.4399 25.0175C34.4418 24.5289 34.1998 23.8168 34.794 23.6224Z" fill="#212121"/>
<path d="M73.674 66.9206C73.6865 65.0421 73.7078 63.1661 73.7078 61.2876C73.7114 50.3632 73.7097 39.4389 73.7078 28.5144C73.7078 28.0363 73.683 27.5554 73.6704 27.0773C74.3252 27.1456 74.0796 27.8997 74.0815 28.3751C74.0975 34.3628 74.0921 40.3531 74.0921 46.3434C74.0921 52.7698 74.0975 59.1963 74.0815 65.6226C74.0796 66.0929 74.327 66.847 73.674 66.9206Z" fill="#202020"/>
<path d="M23.0267 65.6437C23.0161 58.9125 23.0036 52.1813 22.9983 45.4501C22.9929 39.6359 22.9983 33.8216 22.9947 28.0074C22.9947 27.5318 22.9538 27.0536 22.9307 26.5781C23.1602 26.5387 23.3559 26.5991 23.3844 27.0011C23.4057 27.3032 23.4021 27.6133 23.4021 27.918C23.4021 40.0326 23.4057 52.1472 23.3932 64.2616C23.3915 64.7478 23.6281 65.465 23.0267 65.6437Z" fill="#1E1E1E"/>
<path d="M20.0804 27.3347C20.0697 35.645 20.059 43.9526 20.0484 52.2627C20.043 56.6372 20.0377 61.0091 20.0324 65.3836C19.5911 65.3047 19.6694 64.8029 19.6694 64.3825C19.6676 52.381 19.6676 40.382 19.6712 28.3804C19.6712 27.939 19.552 27.3479 20.0804 27.3347Z" fill="#202020"/>
</g>
</g>
</g>
</g>
<defs>
<filter id="filter0_d_10_223" x="0" y="0" width="92" height="92" filterUnits="userSpaceOnUse" color-interpolation-filters="sRGB">
<feFlood flood-opacity="0" result="BackgroundImageFix"/>
<feColorMatrix in="SourceAlpha" type="matrix" values="0 0 0 0 0 0 0 0 0 0 0 0 0 0 0 0 0 0 127 0" result="hardAlpha"/>
<feOffset dy="2"/>
<feGaussianBlur stdDeviation="2"/>
<feComposite in2="hardAlpha" operator="out"/>
<feColorMatrix type="matrix" values="0 0 0 0 0 0 0 0 0 0 0 0 0 0 0 0 0 0 0.075 0"/>
<feBlend mode="normal" in2="BackgroundImageFix" result="effect1_dropShadow_10_223"/>
<feBlend mode="normal" in="SourceGraphic" in2="effect1_dropShadow_10_223" result="shape"/>
</filter>
<clipPath id="clip0_10_223">
<rect width="64" height="64" fill="white" transform="translate(14 12)"/>
</clipPath>
<clipPath id="clip1_10_223">
<rect width="59.0769" height="64" fill="white" transform="translate(16.4615 12)"/>
</clipPath>
</defs>
</svg>
