<svg width="53" height="60" viewBox="0 0 53 60" fill="none" xmlns="http://www.w3.org/2000/svg">
<path fill-rule="evenodd" clip-rule="evenodd" d="M6.80417 1.91323C7.36741 1.25803 8.04374 0.749766 8.78834 0.42212C9.53294 0.0944743 10.3288 -0.0450733 11.1232 0.0127251C11.9176 0.0705236 12.6924 0.324348 13.3962 0.757379C14.1 1.19041 14.7168 1.79276 15.2057 2.5245L20.9838 11.1724C22.0428 12.7587 22.4162 14.8251 21.9978 16.7752L20.237 24.988C20.146 25.4134 20.1509 25.859 20.2513 26.2815C20.3517 26.704 20.5441 27.0891 20.81 27.3994L28.719 36.6136C28.9857 36.9239 29.3168 37.1485 29.6801 37.2655C30.0433 37.3825 30.4264 37.3878 30.792 37.2811L37.8384 35.2298C38.6644 34.9891 39.5266 34.9704 40.3598 35.1751C41.1929 35.3798 41.9752 35.8024 42.6476 36.4111L50.0705 43.1389C52.7391 45.5577 52.9837 50.1517 50.5952 52.9306L47.2668 56.8082C44.8848 59.5834 41.3246 60.8022 38.0058 59.4409C29.5115 55.9589 21.7991 50.2936 15.4407 42.8651C9.06482 35.4586 4.20197 26.4748 1.21279 16.5801C0.0475163 12.7175 1.09369 8.56603 3.47574 5.7909L6.80417 1.91323Z" fill="#F09259"/>
</svg>
