<svg width="43" height="43" viewBox="0 0 43 43" fill="none" xmlns="http://www.w3.org/2000/svg">
<rect width="43" height="43" rx="21.5" fill="white"/>
<path d="M37.6257 18.1317H25.4782L30.3874 13.0792C25.4962 8.24167 17.577 8.0625 12.6858 12.9C7.7945 17.7554 7.7945 25.585 12.6858 30.4404C17.577 35.2958 25.4962 35.2958 30.3874 30.4404C32.8241 28.0396 34.0424 25.2267 34.0424 21.6792H37.6257C37.6257 25.2267 36.0491 29.8312 32.8958 32.9487C26.607 39.1837 16.3945 39.1837 10.1058 32.9487C3.83492 26.7317 3.78117 16.6267 10.0699 10.4096C16.3587 4.1925 26.4457 4.1925 32.7345 10.4096L37.6257 5.375V18.1317ZM22.3966 14.3333V21.9479L28.6674 25.6746L27.3774 27.8425L19.7091 23.2917V14.3333H22.3966Z" fill="#669BEB"/>
</svg>
