<svg width="88" height="88" viewBox="0 0 88 88" fill="none" xmlns="http://www.w3.org/2000/svg">
<g filter="url(#filter0_d_10_246)">
<rect x="4" y="2" width="80" height="80" rx="40" fill="white" shape-rendering="crispEdges"/>
<g clip-path="url(#clip0_10_246)">
<g clip-path="url(#clip1_10_246)">
<mask id="mask0_10_246" style="mask-type:luminance" maskUnits="userSpaceOnUse" x="12" y="2" width="64" height="80">
<path d="M75.0448 2.24896H12.9552V81.0549H75.0448V2.24896Z" fill="white"/>
</mask>
<g mask="url(#mask0_10_246)">
<path d="M75.0032 62.8646C69.7109 65.0153 69.332 65.3962 66.8229 71.0469C66.2779 71.0469 65.6823 71.0469 65.0866 71.0469C50.5925 71.0469 36.0947 71.0288 21.6006 71.076C20.2722 71.0797 19.6549 70.7967 19.2 69.3967C18.0629 65.9112 15.4131 63.9309 11.8645 62.9951C11.8356 62.4438 11.7887 61.907 11.7887 61.3739C11.7779 52.4915 11.7959 43.6091 11.7598 34.7267C11.7562 33.5661 11.9692 32.9712 13.2363 32.5396C17.0448 31.2448 19.1422 28.365 19.8678 24.2412C23.3876 24.2412 26.911 24.2412 30.6329 24.2412C30.7087 22.8375 30.7736 21.6116 30.853 20.1246C33.7951 20.966 34.1453 18.9675 34.7302 16.8929C35.3475 14.7059 37.12 13.5779 39.3545 13.4909C41.997 13.3857 44.6468 13.4111 47.2929 13.48C49.6539 13.5417 51.3939 14.9235 52.134 17.1432C53.0509 19.8852 53.0509 19.8852 55.9064 20.3531C55.9064 20.9117 55.9064 21.5028 55.9064 22.094C55.9064 22.6924 55.9064 23.2946 55.9064 24.1142C59.5886 24.1142 63.1661 24.1142 66.5487 24.1142C67.2887 25.8406 67.675 27.4982 68.6135 28.7314C69.6351 30.0805 70.9998 31.5712 72.5124 32.0463C74.9346 32.8116 75.0646 34.2116 75.0429 36.2935C74.949 45.107 75.0032 53.9278 75.0032 62.8646ZM41.997 59.7889C43.0548 60.779 43.7949 61.9687 44.4013 61.907C45.1378 61.8308 45.7623 60.692 46.4374 60.0102C46.3002 59.8724 46.163 59.7345 46.0258 59.5931C49.1882 58.9946 51.2459 57.2246 51.5167 53.9677C51.8127 50.4277 50.0762 48.1283 46.7334 47.004C46.4157 46.8951 45.9933 46.4526 45.9862 46.1552C45.9248 43.7287 45.9537 41.3023 45.9537 38.8723C46.1955 38.8034 46.441 38.7309 46.6829 38.6619C47.3038 39.8298 47.8597 41.0339 48.5673 42.1474C48.9499 42.7495 49.5853 43.1847 50.1087 43.6961C50.4842 43.0324 51.1845 42.365 51.1809 41.7013C51.1701 39.2423 49.8669 37.4578 47.6684 36.4676C46.6251 35.9961 45.7876 35.6516 45.7696 34.2588C45.7659 33.8526 44.8561 33.1018 44.4338 33.1489C43.8852 33.2106 43.3328 33.8526 42.9285 34.364C42.7155 34.6324 42.8165 35.1546 42.7804 35.5246C37.8167 37.1495 36.0442 38.9158 36.0189 42.22C35.9937 45.7163 37.8637 47.6785 42.7877 49.2671C42.7877 51.7588 42.7877 54.2723 42.7877 56.8583C40.4159 56.6407 38.7806 55.6578 37.8492 53.4308C37.6218 52.8832 36.6362 52.651 35.9973 52.2775C35.7807 52.9521 35.2464 53.7247 35.4197 54.2723C35.7554 55.3241 36.2681 56.5646 37.1092 57.163C38.7228 58.3127 40.6181 59.0707 41.997 59.7889ZM49.3506 24.0961C48.8453 22.2971 48.4806 20.7086 47.9283 19.1888C47.7623 18.7281 47.0944 18.166 46.6287 18.1443C44.4699 18.0318 42.3039 18.0572 40.1415 18.1261C39.7192 18.1407 39.0477 18.4707 38.9358 18.8043C38.3509 20.5272 37.907 22.3008 37.4016 24.0961C41.4809 24.0961 45.3616 24.0961 49.3506 24.0961Z" fill="#F09259"/>
<path d="M70.3823 24.1833C71.4257 24.1833 72.3173 24.1724 73.209 24.1869C73.7396 24.1942 74.2667 24.2413 74.8984 24.2776C74.8984 25.9714 74.8984 27.5782 74.8984 29.1849C72.7504 29.1124 71.0683 27.346 70.3823 24.1833Z" fill="#F09259"/>
<path d="M11.8754 29.359C11.8754 27.6253 11.8754 26.0185 11.8754 24.2994C13.3735 24.2994 14.7778 24.2994 16.1893 24.2994C16.0341 26.8201 14.5973 28.543 11.8754 29.359Z" fill="#F09259"/>
<path d="M74.9491 66.5606C74.9491 68.1601 74.9491 69.4621 74.9491 70.9093C73.5232 70.9093 72.155 70.9093 70.5846 70.9093C71.2777 68.6315 72.6387 67.2896 74.9491 66.5606Z" fill="#F09259"/>
<path d="M11.8573 70.9564C11.8573 69.444 11.8573 68.1347 11.8573 66.5389C14.1172 67.3367 15.5106 68.6534 16.1785 70.9564C14.6948 70.9564 13.3591 70.9564 11.8573 70.9564Z" fill="#F09259"/>
<path d="M42.8237 38.5243C42.8237 41.1212 42.8237 43.5875 42.8237 46.0537C40.5205 45.9704 39.0079 44.661 38.9068 42.7024C38.7842 40.4175 40.1667 38.8905 42.8237 38.5243Z" fill="#F09259"/>
<path d="M46.0583 56.7316C46.0583 54.3196 46.0583 52.0818 46.0583 49.8005C48.1412 50.5113 48.8705 51.5885 48.8019 53.7139C48.7514 55.3243 48.0871 56.0968 46.0583 56.7316Z" fill="#F09259"/>
</g>
</g>
</g>
</g>
<defs>
<filter id="filter0_d_10_246" x="0" y="0" width="88" height="88" filterUnits="userSpaceOnUse" color-interpolation-filters="sRGB">
<feFlood flood-opacity="0" result="BackgroundImageFix"/>
<feColorMatrix in="SourceAlpha" type="matrix" values="0 0 0 0 0 0 0 0 0 0 0 0 0 0 0 0 0 0 127 0" result="hardAlpha"/>
<feOffset dy="2"/>
<feGaussianBlur stdDeviation="2"/>
<feComposite in2="hardAlpha" operator="out"/>
<feColorMatrix type="matrix" values="0 0 0 0 0 0 0 0 0 0 0 0 0 0 0 0 0 0 0.075 0"/>
<feBlend mode="normal" in2="BackgroundImageFix" result="effect1_dropShadow_10_246"/>
<feBlend mode="normal" in="SourceGraphic" in2="effect1_dropShadow_10_246" result="shape"/>
</filter>
<clipPath id="clip0_10_246">
<rect width="80" height="80" fill="white" transform="translate(4 2)"/>
</clipPath>
<clipPath id="clip1_10_246">
<rect width="62.0896" height="80" fill="white" transform="translate(12.9552 2)"/>
</clipPath>
</defs>
</svg>
