<svg version="1.2" xmlns="http://www.w3.org/2000/svg" viewBox="0 0 590 590" width="590" height="590">
	<title>user-solid-svg</title>
	<style>
		.s0 { fill: #ffffff } 
	</style>
	<rect width="590" height="590" id="Lapisan 1" style="fill: #f09259"/>
	<path id="Layer" class="s0" d="m295 295c26.5 0 51.9-10.5 70.7-29.3 18.7-18.7 29.3-44.1 29.3-70.7 0-26.5-10.6-51.9-29.3-70.6-18.8-18.8-44.2-29.3-70.7-29.3-26.5 0-51.9 10.5-70.7 29.3-18.7 18.7-29.3 44.1-29.3 70.6 0 26.6 10.6 52 29.3 70.7 18.8 18.8 44.2 29.3 70.7 29.3zm-35.7 37.5c-76.9 0-139.2 62.3-139.2 139.2 0 12.8 10.4 23.2 23.2 23.2h303.4c12.8 0 23.2-10.4 23.2-23.2 0-76.9-62.3-139.2-139.2-139.2z"/>
</svg>